<mxfile host="app.diagrams.net" modified="2021-03-20T15:01:30.459Z" agent="5.0 (Windows NT 10.0; Win64; x64) AppleWebKit/537.36 (KHTML, like Gecko) Chrome/89.0.4389.90 Safari/537.36" etag="djZ6Ct1sEMEx1085dLdz" version="14.4.9" type="github">
  <diagram id="NljDdEd452QY7NSiDqMK" name="Page-1">
    <mxGraphModel dx="1209" dy="643" grid="1" gridSize="10" guides="1" tooltips="1" connect="1" arrows="1" fold="1" page="1" pageScale="1" pageWidth="850" pageHeight="1100" math="0" shadow="0">
      <root>
        <mxCell id="0" />
        <mxCell id="1" parent="0" />
        <mxCell id="Qlv-Gw9UM8wZrleyQhA_-4" value="" style="edgeStyle=orthogonalEdgeStyle;rounded=0;orthogonalLoop=1;jettySize=auto;html=1;" edge="1" parent="1" source="Qlv-Gw9UM8wZrleyQhA_-1" target="Qlv-Gw9UM8wZrleyQhA_-3">
          <mxGeometry relative="1" as="geometry" />
        </mxCell>
        <mxCell id="Qlv-Gw9UM8wZrleyQhA_-6" value="" style="edgeStyle=orthogonalEdgeStyle;rounded=0;orthogonalLoop=1;jettySize=auto;html=1;" edge="1" parent="1" source="Qlv-Gw9UM8wZrleyQhA_-1" target="Qlv-Gw9UM8wZrleyQhA_-5">
          <mxGeometry relative="1" as="geometry" />
        </mxCell>
        <mxCell id="Qlv-Gw9UM8wZrleyQhA_-1" value="" style="ellipse;whiteSpace=wrap;html=1;aspect=fixed;" vertex="1" parent="1">
          <mxGeometry x="410" y="90" width="80" height="80" as="geometry" />
        </mxCell>
        <mxCell id="Qlv-Gw9UM8wZrleyQhA_-2" value="server&lt;br&gt;rPi" style="text;html=1;strokeColor=none;fillColor=none;align=center;verticalAlign=middle;whiteSpace=wrap;rounded=0;" vertex="1" parent="1">
          <mxGeometry x="430" y="120" width="40" height="20" as="geometry" />
        </mxCell>
        <mxCell id="Qlv-Gw9UM8wZrleyQhA_-16" value="" style="edgeStyle=orthogonalEdgeStyle;rounded=0;orthogonalLoop=1;jettySize=auto;html=1;" edge="1" parent="1" source="Qlv-Gw9UM8wZrleyQhA_-3" target="Qlv-Gw9UM8wZrleyQhA_-15">
          <mxGeometry relative="1" as="geometry" />
        </mxCell>
        <mxCell id="Qlv-Gw9UM8wZrleyQhA_-18" value="" style="edgeStyle=orthogonalEdgeStyle;rounded=0;orthogonalLoop=1;jettySize=auto;html=1;" edge="1" parent="1" source="Qlv-Gw9UM8wZrleyQhA_-3" target="Qlv-Gw9UM8wZrleyQhA_-17">
          <mxGeometry relative="1" as="geometry" />
        </mxCell>
        <mxCell id="Qlv-Gw9UM8wZrleyQhA_-3" value="esp32" style="ellipse;whiteSpace=wrap;html=1;aspect=fixed;" vertex="1" parent="1">
          <mxGeometry x="250" y="90" width="80" height="80" as="geometry" />
        </mxCell>
        <mxCell id="Qlv-Gw9UM8wZrleyQhA_-12" value="" style="edgeStyle=orthogonalEdgeStyle;rounded=0;orthogonalLoop=1;jettySize=auto;html=1;" edge="1" parent="1" source="Qlv-Gw9UM8wZrleyQhA_-5" target="Qlv-Gw9UM8wZrleyQhA_-11">
          <mxGeometry relative="1" as="geometry">
            <Array as="points">
              <mxPoint x="740" y="130" />
            </Array>
          </mxGeometry>
        </mxCell>
        <mxCell id="Qlv-Gw9UM8wZrleyQhA_-14" value="" style="edgeStyle=orthogonalEdgeStyle;rounded=0;orthogonalLoop=1;jettySize=auto;html=1;" edge="1" parent="1" source="Qlv-Gw9UM8wZrleyQhA_-5" target="Qlv-Gw9UM8wZrleyQhA_-13">
          <mxGeometry relative="1" as="geometry" />
        </mxCell>
        <mxCell id="Qlv-Gw9UM8wZrleyQhA_-5" value="arduino nano" style="ellipse;whiteSpace=wrap;html=1;aspect=fixed;" vertex="1" parent="1">
          <mxGeometry x="570" y="90" width="80" height="80" as="geometry" />
        </mxCell>
        <mxCell id="Qlv-Gw9UM8wZrleyQhA_-19" style="edgeStyle=orthogonalEdgeStyle;rounded=0;orthogonalLoop=1;jettySize=auto;html=1;" edge="1" parent="1" target="Qlv-Gw9UM8wZrleyQhA_-3">
          <mxGeometry relative="1" as="geometry">
            <mxPoint x="290" y="80" as="sourcePoint" />
            <Array as="points">
              <mxPoint x="290" y="90" />
              <mxPoint x="290" y="90" />
            </Array>
          </mxGeometry>
        </mxCell>
        <mxCell id="Qlv-Gw9UM8wZrleyQhA_-7" value="client" style="text;html=1;strokeColor=none;fillColor=none;align=center;verticalAlign=middle;whiteSpace=wrap;rounded=0;" vertex="1" parent="1">
          <mxGeometry x="270" y="60" width="40" height="20" as="geometry" />
        </mxCell>
        <mxCell id="Qlv-Gw9UM8wZrleyQhA_-20" style="edgeStyle=orthogonalEdgeStyle;rounded=0;orthogonalLoop=1;jettySize=auto;html=1;exitX=0.5;exitY=1;exitDx=0;exitDy=0;entryX=0.5;entryY=0;entryDx=0;entryDy=0;" edge="1" parent="1" source="Qlv-Gw9UM8wZrleyQhA_-9" target="Qlv-Gw9UM8wZrleyQhA_-5">
          <mxGeometry relative="1" as="geometry" />
        </mxCell>
        <mxCell id="Qlv-Gw9UM8wZrleyQhA_-9" value="client" style="text;html=1;strokeColor=none;fillColor=none;align=center;verticalAlign=middle;whiteSpace=wrap;rounded=0;" vertex="1" parent="1">
          <mxGeometry x="590" y="60" width="40" height="20" as="geometry" />
        </mxCell>
        <mxCell id="Qlv-Gw9UM8wZrleyQhA_-11" value="gyroscope" style="ellipse;whiteSpace=wrap;html=1;aspect=fixed;" vertex="1" parent="1">
          <mxGeometry x="710" y="210" width="80" height="80" as="geometry" />
        </mxCell>
        <mxCell id="Qlv-Gw9UM8wZrleyQhA_-13" value="accelerometer" style="ellipse;whiteSpace=wrap;html=1;aspect=fixed;" vertex="1" parent="1">
          <mxGeometry x="570" y="250" width="80" height="80" as="geometry" />
        </mxCell>
        <mxCell id="Qlv-Gw9UM8wZrleyQhA_-15" value="ultrasonic" style="ellipse;whiteSpace=wrap;html=1;aspect=fixed;" vertex="1" parent="1">
          <mxGeometry x="80" y="180" width="80" height="80" as="geometry" />
        </mxCell>
        <mxCell id="Qlv-Gw9UM8wZrleyQhA_-17" value="photoresistor" style="ellipse;whiteSpace=wrap;html=1;aspect=fixed;" vertex="1" parent="1">
          <mxGeometry x="250" y="250" width="80" height="80" as="geometry" />
        </mxCell>
        <mxCell id="Qlv-Gw9UM8wZrleyQhA_-23" value="1. server" style="text;html=1;align=center;verticalAlign=middle;resizable=0;points=[];autosize=1;" vertex="1" parent="1">
          <mxGeometry x="60" y="460" width="60" height="20" as="geometry" />
        </mxCell>
      </root>
    </mxGraphModel>
  </diagram>
</mxfile>
